<svg xmlns="http://www.w3.org/2000/svg" version="1.0" width="370.000000pt" height="100.000000pt" viewBox="0 0 370.000000 100.000000" preserveAspectRatio="xMidYMid meet" style="&#10;    fill: #00B3A4;&#10;">

<g transform="translate(0.000000,100.000000) scale(0.100000,-0.100000)" fill="#000" stroke="none">
<path d="M423 841 c-122 -45 -197 -139 -209 -262 -15 -160 39 -255 227 -400 91 -71 127 -94 137 -86 9 7 -9 31 -76 96 -118 114 -147 168 -147 276 0 74 3 84 33 132 39 61 74 84 156 108 58 17 154 17 198 0 16 -6 16 -4 7 24 -34 98 -205 157 -326 112z" fill="#0066FF"/>
<path d="M1496 684 c-9 -8 -16 -22 -16 -29 0 -7 7 -21 16 -29 30 -30 74 -13 74 29 0 42 -44 59 -74 29z"/>
<path d="M1200 465 l0 -215 125 0 125 0 0 30 0 29 -87 3 -88 3 -3 183 -2 182 -35 0 -35 0 0 -215z"/>
<path d="M2260 465 l0 -215 130 0 130 0 0 30 0 30 -90 0 -90 0 0 185 0 185 -40 0 -40 0 0 -215z"/>
<path d="M787 659 c-92 -22 -175 -88 -217 -174 -18 -38 -24 -67 -24 -120 -1 -38 4 -78 10 -88 9 -15 16 -8 54 49 46 69 192 224 211 224 6 0 -16 -29 -49 -65 -105 -115 -182 -248 -182 -313 0 -49 13 -55 46 -21 16 17 72 57 124 89 172 107 213 167 214 310 1 119 1 120 -81 119 -37 -1 -85 -5 -106 -10z" fill="#0066FF"/>
<path d="M1497 554 c-4 -4 -7 -74 -7 -156 l0 -148 40 0 41 0 -3 153 -3 152 -30 3 c-17 2 -34 0 -38 -4z"/>
<path d="M1610 553 c0 -4 23 -75 52 -156 l52 -148 45 3 45 3 48 135 c26 74 51 143 54 153 5 16 1 18 -33 15 l-38 -3 -35 -102 c-19 -56 -38 -104 -41 -107 -3 -3 -21 42 -40 101 l-35 108 -37 3 c-20 2 -37 0 -37 -5z"/>
<path d="M1992 540 c-89 -54 -81 -240 12 -284 61 -29 134 -18 175 25 32 35 28 52 -11 44 -18 -3 -45 -11 -60 -17 -39 -15 -75 -2 -93 32 -8 16 -15 31 -15 35 0 3 48 5 106 5 l106 0 -7 47 c-9 64 -29 99 -65 118 -41 21 -108 19 -148 -5z m122 -62 c29 -41 21 -48 -49 -48 -36 0 -65 2 -65 5 0 4 7 19 15 35 13 24 22 30 50 30 24 0 39 -7 49 -22z"/>
<path d="M2619 537 c-45 -30 -64 -71 -64 -137 1 -98 59 -160 150 -160 84 0 145 67 145 158 0 104 -53 162 -147 162 -36 0 -60 -7 -84 -23z m135 -59 c33 -54 26 -147 -14 -168 -58 -31 -110 11 -110 90 0 63 28 100 75 100 25 0 38 -6 49 -22z"/>
<path d="M2910 405 l0 -155 35 0 35 0 0 99 c0 84 3 102 21 125 23 29 60 34 83 10 13 -12 16 -39 16 -125 l0 -109 41 0 41 0 -4 118 c-6 156 -25 191 -104 192 -27 0 -50 -7 -67 -20 -14 -11 -28 -20 -31 -20 -3 0 -6 9 -6 20 0 16 -7 20 -30 20 l-30 0 0 -155z"/>
<path d="M3298 544 c-76 -40 -88 -182 -23 -253 30 -32 38 -36 84 -35 39 0 57 6 75 23 l24 23 -5 -44 c-3 -23 -12 -51 -21 -60 -21 -25 -77 -23 -102 2 -12 12 -33 20 -55 20 -40 0 -40 -1 -20 -39 40 -78 199 -81 250 -5 18 26 20 47 20 204 l0 175 -32 3 c-25 2 -33 -1 -33 -12 0 -20 -11 -20 -36 -1 -25 19 -91 18 -126 -1z m136 -66 c48 -78 5 -181 -68 -162 -61 15 -76 140 -22 176 24 17 75 8 90 -14z"/>
</g>
</svg>